# xmcd CD database file
#
# Track frame offsets:
#	199
#	18564
#	36132
#
# Disc length: 721 seconds
#
# Revision: 0
# Processed by: cddbd v1.5.2PL0 Copyright (c) Steve Scherf et al.
# Submitted via: CDex 1.70beta2
#
DISCID=1c02cf03
DTITLE=Scooter Lee - Ribbon Of Highway/In The Name Of Love
DYEAR=1999
DGENRE=Country
TTITLE0=In The Name Of Love
TTITLE1=Ribbon Of Highway
TTITLE2=Last Time Uh-Huh
EXTD=YEAR: 1999
EXTT0=
EXTT1=
EXTT2=
PLAYORDER=
